# xmcd
#
# Track frame offsets:
#	150
#	15222
#	30987
#	50742
#	68055
#	80135
#	94675
#	109807
#	123882
#	140522
#	156465
#	170255
#	186647
#	205695
#	220602
#
# Disc length: 3171 seconds
#
# Revision: 2
# Processed by: cddbd v1.5.1PL2 Copyright (c) Steve Scherf et al.
# Submitted via: audiograbber 1.83.01
#
DISCID=ca0c610f
DTITLE=Various Artist - Mm6255
DYEAR=1900
DGENRE=Country
TTITLE0=Blackhawk - There You Have It
TTITLE1=Yearwood, Trisha and Brooks, Garth - Where Your Road Leads
TTITLE2=Hill, Faith - Let Me Let Go
TTITLE3=Tillis, Pam - Every Time
TTITLE4=Strait, George - We Really Shouldn't Be Doing This
TTITLE5=Diffie, Joe - Poor Me
TTITLE6=McBride, Martina - Wrong Again
TTITLE7=Brooks and Dunn - Husbands and Wives
TTITLE8=Yoakam, Dwight - These Arms
TTITLE9=Chestnutt, Mark - Wherever You Are
TTITLE10=Peterson, Michael - By The Book
TTITLE11=White, Lari - Take Me
TTITLE12=Montgomery, John Michael - Hold On To Me
TTITLE13=Keith, Toby - Getcha Some
TTITLE14=Judd, Wynonna - Woman To Woman
EXTD=
EXTT0=
EXTT1=
EXTT2=
EXTT3=
EXTT4=
EXTT5=
EXTT6=
EXTT7=
EXTT8=
EXTT9=
EXTT10=
EXTT11=
EXTT12=
EXTT13=
EXTT14=
PLAYORDER=
